<?plantuml 1.2026.2?><svg xmlns="http://www.w3.org/2000/svg" xmlns:xlink="http://www.w3.org/1999/xlink" contentStyleType="text/css" data-diagram-type="CLASS" height="594px" preserveAspectRatio="none" style="width:3323px;height:594px;background:#FFFFFF;" version="1.1" viewBox="0 0 3323 594" width="3323px" zoomAndPan="magnify"><title>CliCommand Hierarchy</title><defs/><g><g class="title" data-source-line="31"><text fill="#000000" font-family="sans-serif" font-size="14" font-weight="bold" lengthAdjust="spacing" textLength="165.9082" x="1572.0158" y="23.5352">CliCommand Hierarchy</text></g><!--cluster OsLib--><g class="cluster" data-qualified-name="OsLib" data-source-line="33" id="ent0002"><path d="M8.5,43.4883 L50.9121,43.4883 A3.75,3.75 0 0 1 53.4121,45.9883 L60.4121,65.9766 L1753.5,65.9766 A2.5,2.5 0 0 1 1756,68.4766 L1756,584.5483 A2.5,2.5 0 0 1 1753.5,587.0483 L8.5,587.0483 A2.5,2.5 0 0 1 6,584.5483 L6,45.9883 A2.5,2.5 0 0 1 8.5,43.4883" fill="none" style="stroke:#000000;stroke-width:1.5;"/><line style="stroke:#000000;stroke-width:1.5;" x1="6" x2="60.4121" y1="65.9766" y2="65.9766"/><text fill="#000000" font-family="sans-serif" font-size="14" font-weight="bold" lengthAdjust="spacing" textLength="41.4121" x="10" y="59.0234">OsLib</text></g><!--cluster RaiImage--><g class="cluster" data-qualified-name="RaiImage" data-source-line="73" id="ent0010"><path d="M1782.5,71.9483 L1849.8291,71.9483 A3.75,3.75 0 0 1 1852.3291,74.4483 L1859.3291,94.4366 L2583.5,94.4366 A2.5,2.5 0 0 1 2586,96.9366 L2586,411.1783 A2.5,2.5 0 0 1 2583.5,413.6783 L1782.5,413.6783 A2.5,2.5 0 0 1 1780,411.1783 L1780,74.4483 A2.5,2.5 0 0 1 1782.5,71.9483" fill="none" style="stroke:#000000;stroke-width:1.5;"/><line style="stroke:#000000;stroke-width:1.5;" x1="1780" x2="1859.3291" y1="94.4366" y2="94.4366"/><text fill="#000000" font-family="sans-serif" font-size="14" font-weight="bold" lengthAdjust="spacing" textLength="66.3291" x="1784" y="87.4834">RaiImage</text></g><!--class CliCommand--><g class="entity" data-qualified-name="OsLib.CliCommand" data-source-line="34" id="ent0003"><rect fill="#CCFBF1" height="182.508" rx="2.5" ry="2.5" style="stroke:#0F766E;stroke-width:0.5;" width="617.9121" x="1122.04" y="78.4883"/><ellipse cx="1396.4701" cy="94.4883" fill="#A9DCDF" rx="11" ry="11" style="stroke:#181818;stroke-width:1;"/><path d="M1396.3333,89.8364 L1395.1795,94.9082 L1397.4954,94.9082 Z M1394.8392,87.5952 L1397.8358,87.5952 L1401.181,99.9883 L1398.7323,99.9883 L1397.9686,96.9253 L1394.6898,96.9253 L1393.9427,99.9883 L1391.494,99.9883 Z " fill="#000000"/><text fill="#111827" font-family="Casual" font-size="12" font-style="italic" lengthAdjust="spacing" textLength="60.552" x="1416.9701" y="97.9743">CliCommand</text><line style="stroke:#0F766E;stroke-width:0.5;" x1="1123.04" x2="1738.9521" y1="110.4883" y2="110.4883"/><g data-visibility-modifier="PUBLIC_FIELD"><ellipse cx="1133.04" cy="122.1023" fill="none" rx="3" ry="3" style="stroke:#038048;stroke-width:1;"/></g><text fill="#053583" font-family="Casual" font-size="12" lengthAdjust="spacing" textLength="131.016" x="1142.04" y="124.0883">ExecutableName : string</text><g data-visibility-modifier="PUBLIC_FIELD"><ellipse cx="1133.04" cy="134.3303" fill="none" rx="3" ry="3" style="stroke:#038048;stroke-width:1;"/></g><text fill="#053583" font-family="Casual" font-size="12" lengthAdjust="spacing" textLength="117.144" x="1142.04" y="136.3163">PackageName : string</text><g data-visibility-modifier="PUBLIC_FIELD"><ellipse cx="1133.04" cy="146.5583" fill="none" rx="3" ry="3" style="stroke:#038048;stroke-width:1;"/></g><text fill="#053583" font-family="Casual" font-size="12" lengthAdjust="spacing" textLength="112.068" x="1142.04" y="148.5443">DisplayName : string</text><g data-visibility-modifier="PUBLIC_FIELD"><ellipse cx="1133.04" cy="158.7863" fill="none" rx="3" ry="3" style="stroke:#038048;stroke-width:1;"/></g><text fill="#053583" font-family="Casual" font-size="12" lengthAdjust="spacing" textLength="234.696" x="1142.04" y="160.7723">CandidateExecutables : IEnumerable&lt;string&gt;</text><line style="stroke:#0F766E;stroke-width:0.5;" x1="1123.04" x2="1738.9521" y1="167.4003" y2="167.4003"/><g data-visibility-modifier="PUBLIC_METHOD"><ellipse cx="1133.04" cy="179.0143" fill="#84BE84" rx="3" ry="3" style="stroke:#038048;stroke-width:1;"/></g><text fill="#053583" font-family="Casual" font-size="12" lengthAdjust="spacing" textLength="105.708" x="1142.04" y="181.0003">IsAvailable() : bool</text><g data-visibility-modifier="PUBLIC_METHOD"><ellipse cx="1133.04" cy="191.2423" fill="#84BE84" rx="3" ry="3" style="stroke:#038048;stroke-width:1;"/></g><text fill="#053583" font-family="Casual" font-size="12" lengthAdjust="spacing" textLength="284.688" x="1142.04" y="193.2283">TryResolveExecutable(out executable : string) : bool</text><g data-visibility-modifier="PUBLIC_METHOD"><ellipse cx="1133.04" cy="203.4703" fill="#84BE84" rx="3" ry="3" style="stroke:#038048;stroke-width:1;"/></g><text fill="#053583" font-family="Casual" font-size="12" lengthAdjust="spacing" textLength="150.12" x="1142.04" y="205.4563">ResolveExecutable() : string</text><g data-visibility-modifier="PUBLIC_METHOD"><ellipse cx="1133.04" cy="215.6983" fill="#84BE84" rx="3" ry="3" style="stroke:#038048;stroke-width:1;"/></g><text fill="#053583" font-family="Casual" font-size="12" lengthAdjust="spacing" textLength="258.492" x="1142.04" y="217.6843">Run(arguments : string = "") : RaiSystemResult</text><g data-visibility-modifier="PUBLIC_METHOD"><ellipse cx="1133.04" cy="227.9263" fill="#84BE84" rx="3" ry="3" style="stroke:#038048;stroke-width:1;"/></g><text fill="#053583" font-family="Casual" font-size="12" lengthAdjust="spacing" textLength="591.9121" x="1142.04" y="229.9123">RunAsync(arguments : string = "", cancellationToken : CancellationToken = default) : Task&lt;RaiSystemResult&gt;</text><g data-visibility-modifier="PUBLIC_METHOD"><ellipse cx="1133.04" cy="240.1543" fill="#84BE84" rx="3" ry="3" style="stroke:#038048;stroke-width:1;"/></g><text fill="#053583" font-family="Casual" font-size="12" lengthAdjust="spacing" textLength="154.656" x="1142.04" y="242.1403">GetInstallCommand() : string</text><g data-visibility-modifier="PUBLIC_METHOD"><ellipse cx="1133.04" cy="252.3823" fill="#84BE84" rx="3" ry="3" style="stroke:#038048;stroke-width:1;"/></g><text fill="#053583" font-family="Casual" font-size="12" lengthAdjust="spacing" textLength="154.86" x="1142.04" y="254.3683">GetUpdateCommand() : string</text></g><!--class CurlCommand--><g class="entity" data-qualified-name="OsLib.CurlCommand" data-source-line="48" id="ent0004"><rect fill="#CCFBF1" height="32" rx="2.5" ry="2.5" style="stroke:#0F766E;stroke-width:0.5;" width="100.244" x="538.88" y="343.3383"/><ellipse cx="553.88" cy="359.3383" fill="#ADD1B2" rx="11" ry="11" style="stroke:#181818;stroke-width:1;"/><path d="M556.3531,365.4813 Q555.7721,365.7802 555.1329,365.9296 Q554.4938,366.079 553.7882,366.079 Q551.2814,366.079 549.9615,364.4271 Q548.6417,362.7753 548.6417,359.6542 Q548.6417,356.5248 549.9615,354.8729 Q551.2814,353.2211 553.7882,353.2211 Q554.4938,353.2211 555.1412,353.3705 Q555.7887,353.5199 556.3531,353.8187 L556.3531,356.5414 Q555.7223,355.9604 555.1288,355.6906 Q554.5353,355.4208 553.9044,355.4208 Q552.5597,355.4208 551.8749,356.4875 Q551.1901,357.5541 551.1901,359.6542 Q551.1901,361.746 551.8749,362.8126 Q552.5597,363.8793 553.9044,363.8793 Q554.5353,363.8793 555.1288,363.6095 Q555.7223,363.3397 556.3531,362.7587 Z " fill="#000000"/><text fill="#111827" font-family="Casual" font-size="12" lengthAdjust="spacing" textLength="68.244" x="567.88" y="362.8243">CurlCommand</text></g><!--class RCloneCommand--><g class="entity" data-qualified-name="OsLib.RCloneCommand" data-source-line="49" id="ent0005"><rect fill="#CCFBF1" height="76.684" rx="2.5" ry="2.5" style="stroke:#0F766E;stroke-width:0.5;" width="774.6442" x="673.68" y="320.9983"/><ellipse cx="1016.1681" cy="336.9983" fill="#ADD1B2" rx="11" ry="11" style="stroke:#181818;stroke-width:1;"/><path d="M1018.6413,343.1413 Q1018.0602,343.4402 1017.421,343.5896 Q1016.7819,343.739 1016.0763,343.739 Q1013.5695,343.739 1012.2497,342.0871 Q1010.9298,340.4353 1010.9298,337.3142 Q1010.9298,334.1848 1012.2497,332.5329 Q1013.5695,330.8811 1016.0763,330.8811 Q1016.7819,330.8811 1017.4293,331.0305 Q1018.0768,331.1799 1018.6413,331.4787 L1018.6413,334.2014 Q1018.0104,333.6204 1017.4169,333.3506 Q1016.8234,333.0808 1016.1925,333.0808 Q1014.8478,333.0808 1014.163,334.1475 Q1013.4782,335.2141 1013.4782,337.3142 Q1013.4782,339.406 1014.163,340.4726 Q1014.8478,341.5393 1016.1925,341.5393 Q1016.8234,341.5393 1017.4169,341.2695 Q1018.0104,340.9997 1018.6413,340.4187 Z " fill="#000000"/><text fill="#111827" font-family="Casual" font-size="12" lengthAdjust="spacing" textLength="81.168" x="1036.6681" y="340.4843">RCloneCommand</text><line style="stroke:#0F766E;stroke-width:0.5;" x1="674.68" x2="1447.3242" y1="352.9983" y2="352.9983"/><g data-visibility-modifier="PUBLIC_METHOD"><ellipse cx="684.68" cy="364.6123" fill="#84BE84" rx="3" ry="3" style="stroke:#038048;stroke-width:1;"/></g><text fill="#053583" font-family="Casual" font-size="12" lengthAdjust="spacing" textLength="355.956" x="693.68" y="366.5983">BuildArguments(subcommand : string, args : string = "") : string</text><g data-visibility-modifier="PUBLIC_METHOD"><ellipse cx="684.68" cy="376.8403" fill="#84BE84" rx="3" ry="3" style="stroke:#038048;stroke-width:1;"/></g><text fill="#053583" font-family="Casual" font-size="12" lengthAdjust="spacing" textLength="415.2239" x="693.68" y="378.8263">RunSubcommand(subcommand : string, args : string = "") : RaiSystemResult</text><g data-visibility-modifier="PUBLIC_METHOD"><ellipse cx="684.68" cy="389.0683" fill="#84BE84" rx="3" ry="3" style="stroke:#038048;stroke-width:1;"/></g><text fill="#053583" font-family="Casual" font-size="12" lengthAdjust="spacing" textLength="748.6442" x="693.68" y="391.0543">RunSubcommandAsync(subcommand : string, args : string = "", cancellationToken : CancellationToken = default) : Task&lt;RaiSystemResult&gt;</text></g><!--class ZipCommand--><g class="entity" data-qualified-name="OsLib.ZipCommand" data-source-line="54" id="ent0006"><rect fill="#CCFBF1" height="32" rx="2.5" ry="2.5" style="stroke:#0F766E;stroke-width:0.5;" width="95.936" x="1483.03" y="343.3383"/><ellipse cx="1498.03" cy="359.3383" fill="#ADD1B2" rx="11" ry="11" style="stroke:#181818;stroke-width:1;"/><path d="M1500.5031,365.4813 Q1499.9221,365.7802 1499.2829,365.9296 Q1498.6438,366.079 1497.9382,366.079 Q1495.4314,366.079 1494.1115,364.4271 Q1492.7917,362.7753 1492.7917,359.6542 Q1492.7917,356.5248 1494.1115,354.8729 Q1495.4314,353.2211 1497.9382,353.2211 Q1498.6438,353.2211 1499.2912,353.3705 Q1499.9387,353.5199 1500.5031,353.8187 L1500.5031,356.5414 Q1499.8723,355.9604 1499.2788,355.6906 Q1498.6853,355.4208 1498.0544,355.4208 Q1496.7097,355.4208 1496.0249,356.4875 Q1495.3401,357.5541 1495.3401,359.6542 Q1495.3401,361.746 1496.0249,362.8126 Q1496.7097,363.8793 1498.0544,363.8793 Q1498.6853,363.8793 1499.2788,363.6095 Q1499.8723,363.3397 1500.5031,362.7587 Z " fill="#000000"/><text fill="#111827" font-family="Casual" font-size="12" lengthAdjust="spacing" textLength="63.936" x="1512.03" y="362.8243">ZipCommand</text></g><!--class SevenZipCommand--><g class="entity" data-qualified-name="OsLib.SevenZipCommand" data-source-line="55" id="ent0007"><rect fill="#CCFBF1" height="32" rx="2.5" ry="2.5" style="stroke:#0F766E;stroke-width:0.5;" width="125.36" x="1614.32" y="343.3383"/><ellipse cx="1629.32" cy="359.3383" fill="#ADD1B2" rx="11" ry="11" style="stroke:#181818;stroke-width:1;"/><path d="M1631.7931,365.4813 Q1631.2121,365.7802 1630.5729,365.9296 Q1629.9338,366.079 1629.2282,366.079 Q1626.7214,366.079 1625.4015,364.4271 Q1624.0817,362.7753 1624.0817,359.6542 Q1624.0817,356.5248 1625.4015,354.8729 Q1626.7214,353.2211 1629.2282,353.2211 Q1629.9338,353.2211 1630.5812,353.3705 Q1631.2287,353.5199 1631.7931,353.8187 L1631.7931,356.5414 Q1631.1623,355.9604 1630.5688,355.6906 Q1629.9753,355.4208 1629.3444,355.4208 Q1627.9997,355.4208 1627.3149,356.4875 Q1626.6301,357.5541 1626.6301,359.6542 Q1626.6301,361.746 1627.3149,362.8126 Q1627.9997,363.8793 1629.3444,363.8793 Q1629.9753,363.8793 1630.5688,363.6095 Q1631.1623,363.3397 1631.7931,362.7587 Z " fill="#000000"/><text fill="#111827" font-family="Casual" font-size="12" lengthAdjust="spacing" textLength="93.36" x="1643.32" y="362.8243">SevenZipCommand</text></g><!--class RaiSystem--><g class="entity" data-qualified-name="OsLib.RaiSystem" data-source-line="57" id="ent0008"><rect fill="#CCFBF1" height="76.684" rx="2.5" ry="2.5" style="stroke:#0F766E;stroke-width:0.5;" width="482.396" x="21.8" y="320.9983"/><ellipse cx="232.408" cy="336.9983" fill="#ADD1B2" rx="11" ry="11" style="stroke:#181818;stroke-width:1;"/><path d="M234.8811,343.1413 Q234.3001,343.4402 233.6609,343.5896 Q233.0218,343.739 232.3162,343.739 Q229.8094,343.739 228.4895,342.0871 Q227.1697,340.4353 227.1697,337.3142 Q227.1697,334.1848 228.4895,332.5329 Q229.8094,330.8811 232.3162,330.8811 Q233.0218,330.8811 233.6692,331.0305 Q234.3167,331.1799 234.8811,331.4787 L234.8811,334.2014 Q234.2503,333.6204 233.6568,333.3506 Q233.0633,333.0808 232.4324,333.0808 Q231.0877,333.0808 230.4029,334.1475 Q229.7181,335.2141 229.7181,337.3142 Q229.7181,339.406 230.4029,340.4726 Q231.0877,341.5393 232.4324,341.5393 Q233.0633,341.5393 233.6568,341.2695 Q234.2503,340.9997 234.8811,340.4187 Z " fill="#000000"/><text fill="#111827" font-family="Casual" font-size="12" lengthAdjust="spacing" textLength="52.68" x="252.908" y="340.4843">RaiSystem</text><line style="stroke:#0F766E;stroke-width:0.5;" x1="22.8" x2="503.196" y1="352.9983" y2="352.9983"/><g data-visibility-modifier="PUBLIC_METHOD"><ellipse cx="32.8" cy="364.6123" fill="#84BE84" rx="3" ry="3" style="stroke:#038048;stroke-width:1;"/></g><text fill="#053583" font-family="Casual" font-size="12" lengthAdjust="spacing" textLength="152.4" x="41.8" y="366.5983">Exec(out msg : string) : int</text><g data-visibility-modifier="PUBLIC_METHOD"><ellipse cx="32.8" cy="376.8403" fill="#84BE84" rx="3" ry="3" style="stroke:#038048;stroke-width:1;"/></g><text fill="#053583" font-family="Casual" font-size="12" lengthAdjust="spacing" textLength="456.396" x="41.8" y="378.8263">ExecAsync(cancellationToken : CancellationToken = default) : Task&lt;RaiSystemResult&gt;</text><g data-visibility-modifier="PUBLIC_METHOD"><ellipse cx="32.8" cy="389.0683" fill="#84BE84" rx="3" ry="3" style="stroke:#038048;stroke-width:1;"/></g><text fill="#053583" font-family="Casual" font-size="12" lengthAdjust="spacing" textLength="162.54" x="41.8" y="391.0543">Start() : Task&lt;ProcessResults&gt;</text></g><!--class RaiSystemResult--><g class="entity" data-qualified-name="OsLib.RaiSystemResult" data-source-line="63" id="ent0009"><rect fill="#CCFBF1" height="113.368" rx="2.5" ry="2.5" style="stroke:#0F766E;stroke-width:0.5;" width="141.092" x="895.45" y="457.6783"/><ellipse cx="921.5848" cy="473.6783" fill="#ADD1B2" rx="11" ry="11" style="stroke:#181818;stroke-width:1;"/><path d="M924.0579,479.8213 Q923.4769,480.1202 922.8377,480.2696 Q922.1986,480.419 921.493,480.419 Q918.9862,480.419 917.6663,478.7671 Q916.3465,477.1153 916.3465,473.9942 Q916.3465,470.8648 917.6663,469.2129 Q918.9862,467.5611 921.493,467.5611 Q922.1986,467.5611 922.846,467.7105 Q923.4935,467.8599 924.0579,468.1587 L924.0579,470.8814 Q923.4271,470.3004 922.8336,470.0306 Q922.2401,469.7608 921.6092,469.7608 Q920.2645,469.7608 919.5797,470.8275 Q918.8949,471.8941 918.8949,473.9942 Q918.8949,476.086 919.5797,477.1526 Q920.2645,478.2193 921.6092,478.2193 Q922.2401,478.2193 922.8336,477.9495 Q923.4271,477.6797 924.0579,477.0987 Z " fill="#000000"/><text fill="#111827" font-family="Casual" font-size="12" lengthAdjust="spacing" textLength="84.348" x="938.0592" y="477.1643">RaiSystemResult</text><line style="stroke:#0F766E;stroke-width:0.5;" x1="896.45" x2="1035.542" y1="489.6783" y2="489.6783"/><g data-visibility-modifier="PUBLIC_FIELD"><ellipse cx="906.45" cy="501.2923" fill="none" rx="3" ry="3" style="stroke:#038048;stroke-width:1;"/></g><text fill="#053583" font-family="Casual" font-size="12" lengthAdjust="spacing" textLength="94.476" x="915.45" y="503.2783">Command : string</text><g data-visibility-modifier="PUBLIC_FIELD"><ellipse cx="906.45" cy="513.5203" fill="none" rx="3" ry="3" style="stroke:#038048;stroke-width:1;"/></g><text fill="#053583" font-family="Casual" font-size="12" lengthAdjust="spacing" textLength="101.028" x="915.45" y="515.5063">Arguments : string</text><g data-visibility-modifier="PUBLIC_FIELD"><ellipse cx="906.45" cy="525.7483" fill="none" rx="3" ry="3" style="stroke:#038048;stroke-width:1;"/></g><text fill="#053583" font-family="Casual" font-size="12" lengthAdjust="spacing" textLength="115.092" x="915.45" y="527.7343">CommandLine : string</text><g data-visibility-modifier="PUBLIC_FIELD"><ellipse cx="906.45" cy="537.9763" fill="none" rx="3" ry="3" style="stroke:#038048;stroke-width:1;"/></g><text fill="#053583" font-family="Casual" font-size="12" lengthAdjust="spacing" textLength="80.976" x="915.45" y="539.9623">Output : string</text><g data-visibility-modifier="PUBLIC_FIELD"><ellipse cx="906.45" cy="550.2043" fill="none" rx="3" ry="3" style="stroke:#038048;stroke-width:1;"/></g><text fill="#053583" font-family="Casual" font-size="12" lengthAdjust="spacing" textLength="74.232" x="915.45" y="552.1903">ExitCode : int</text><g data-visibility-modifier="PUBLIC_FIELD"><ellipse cx="906.45" cy="562.4323" fill="none" rx="3" ry="3" style="stroke:#038048;stroke-width:1;"/></g><text fill="#053583" font-family="Casual" font-size="12" lengthAdjust="spacing" textLength="114.72" x="915.45" y="564.4183">WorkerThreadId : int</text></g><!--class ImageMagickCommand--><g class="entity" data-qualified-name="RaiImage.ImageMagickCommand" data-source-line="74" id="ent0011"><rect fill="#CCFBF1" height="76.684" rx="2.5" ry="2.5" style="stroke:#0F766E;stroke-width:0.5;" width="774.6442" x="1795.68" y="320.9983"/><ellipse cx="2121.0141" cy="336.9983" fill="#ADD1B2" rx="11" ry="11" style="stroke:#181818;stroke-width:1;"/><path d="M2123.4873,343.1413 Q2122.9062,343.4402 2122.267,343.5896 Q2121.6279,343.739 2120.9223,343.739 Q2118.4155,343.739 2117.0957,342.0871 Q2115.7758,340.4353 2115.7758,337.3142 Q2115.7758,334.1848 2117.0957,332.5329 Q2118.4155,330.8811 2120.9223,330.8811 Q2121.6279,330.8811 2122.2753,331.0305 Q2122.9228,331.1799 2123.4873,331.4787 L2123.4873,334.2014 Q2122.8564,333.6204 2122.2629,333.3506 Q2121.6694,333.0808 2121.0385,333.0808 Q2119.6938,333.0808 2119.009,334.1475 Q2118.3242,335.2141 2118.3242,337.3142 Q2118.3242,339.406 2119.009,340.4726 Q2119.6938,341.5393 2121.0385,341.5393 Q2121.6694,341.5393 2122.2629,341.2695 Q2122.8564,340.9997 2123.4873,340.4187 Z " fill="#000000"/><text fill="#111827" font-family="Casual" font-size="12" lengthAdjust="spacing" textLength="115.476" x="2141.5141" y="340.4843">ImageMagickCommand</text><line style="stroke:#0F766E;stroke-width:0.5;" x1="1796.68" x2="2569.3242" y1="352.9983" y2="352.9983"/><g data-visibility-modifier="PUBLIC_METHOD"><ellipse cx="1806.68" cy="364.6123" fill="#84BE84" rx="3" ry="3" style="stroke:#038048;stroke-width:1;"/></g><text fill="#053583" font-family="Casual" font-size="12" lengthAdjust="spacing" textLength="355.956" x="1815.68" y="366.5983">BuildArguments(subcommand : string, args : string = "") : string</text><g data-visibility-modifier="PUBLIC_METHOD"><ellipse cx="1806.68" cy="376.8403" fill="#84BE84" rx="3" ry="3" style="stroke:#038048;stroke-width:1;"/></g><text fill="#053583" font-family="Casual" font-size="12" lengthAdjust="spacing" textLength="415.2239" x="1815.68" y="378.8263">RunSubcommand(subcommand : string, args : string = "") : RaiSystemResult</text><g data-visibility-modifier="PUBLIC_METHOD"><ellipse cx="1806.68" cy="389.0683" fill="#84BE84" rx="3" ry="3" style="stroke:#038048;stroke-width:1;"/></g><text fill="#053583" font-family="Casual" font-size="12" lengthAdjust="spacing" textLength="748.6442" x="1815.68" y="391.0543">RunSubcommandAsync(subcommand : string, args : string = "", cancellationToken : CancellationToken = default) : Task&lt;RaiSystemResult&gt;</text></g><!--class ImageMagick--><g class="entity" data-qualified-name="RaiImage.ImageMagick" data-source-line="80" id="ent0012"><rect fill="#CCFBF1" height="125.596" rx="2.5" ry="2.5" style="stroke:#0F766E;stroke-width:0.5;" width="365.012" x="2101.49" y="106.9483"/><ellipse cx="2245.726" cy="122.9483" fill="#ADD1B2" rx="11" ry="11" style="stroke:#181818;stroke-width:1;"/><path d="M2248.1991,129.0913 Q2247.6181,129.3902 2246.9789,129.5396 Q2246.3398,129.689 2245.6342,129.689 Q2243.1273,129.689 2241.8075,128.0371 Q2240.4877,126.3853 2240.4877,123.2642 Q2240.4877,120.1348 2241.8075,118.4829 Q2243.1273,116.8311 2245.6342,116.8311 Q2246.3398,116.8311 2246.9872,116.9805 Q2247.6347,117.1299 2248.1991,117.4287 L2248.1991,120.1514 Q2247.5683,119.5704 2246.9748,119.3006 Q2246.3813,119.0308 2245.7504,119.0308 Q2244.4057,119.0308 2243.7209,120.0975 Q2243.036,121.1641 2243.036,123.2642 Q2243.036,125.356 2243.7209,126.4226 Q2244.4057,127.4893 2245.7504,127.4893 Q2246.3813,127.4893 2246.9748,127.2195 Q2247.5683,126.9497 2248.1991,126.3687 Z " fill="#000000"/><text fill="#111827" font-family="Casual" font-size="12" lengthAdjust="spacing" textLength="68.04" x="2266.226" y="126.4343">ImageMagick</text><line style="stroke:#0F766E;stroke-width:0.5;" x1="2102.49" x2="2465.502" y1="138.9483" y2="138.9483"/><g data-visibility-modifier="PUBLIC_METHOD"><ellipse cx="2112.49" cy="150.5623" fill="#84BE84" rx="3" ry="3" style="stroke:#038048;stroke-width:1;"/></g><text fill="#053583" font-family="Casual" font-size="12" lengthAdjust="spacing" textLength="191.208" x="2121.49" y="152.5483">Convert(commandline : string) : int</text><g data-visibility-modifier="PUBLIC_METHOD"><ellipse cx="2112.49" cy="162.7903" fill="#84BE84" rx="3" ry="3" style="stroke:#038048;stroke-width:1;"/></g><text fill="#053583" font-family="Casual" font-size="12" lengthAdjust="spacing" textLength="310.92" x="2121.49" y="164.7763">Convert(options : string, from : string, to : string) : int</text><g data-visibility-modifier="PUBLIC_METHOD"><ellipse cx="2112.49" cy="175.0183" fill="#84BE84" rx="3" ry="3" style="stroke:#038048;stroke-width:1;"/></g><text fill="#053583" font-family="Casual" font-size="12" lengthAdjust="spacing" textLength="191.904" x="2121.49" y="177.0043">Mogrify(commandline : string) : int</text><g data-visibility-modifier="PUBLIC_METHOD"><ellipse cx="2112.49" cy="187.2463" fill="#84BE84" rx="3" ry="3" style="stroke:#038048;stroke-width:1;"/></g><text fill="#053583" font-family="Casual" font-size="12" lengthAdjust="spacing" textLength="203.196" x="2121.49" y="189.2323">Composite(commandline : string) : int</text><g data-visibility-modifier="PUBLIC_METHOD"><ellipse cx="2112.49" cy="199.4743" fill="#84BE84" rx="3" ry="3" style="stroke:#038048;stroke-width:1;"/></g><text fill="#053583" font-family="Casual" font-size="12" lengthAdjust="spacing" textLength="339.012" x="2121.49" y="201.4603">Identify(options : string, image : string, result : string) : int</text><g data-visibility-modifier="PUBLIC_METHOD"><ellipse cx="2112.49" cy="211.7023" fill="#84BE84" rx="3" ry="3" style="stroke:#038048;stroke-width:1;"/></g><text fill="#053583" font-family="Casual" font-size="12" lengthAdjust="spacing" textLength="189.312" x="2121.49" y="213.6883">OptiPng(imgFileName : string) : int</text><g data-visibility-modifier="PUBLIC_METHOD"><ellipse cx="2112.49" cy="223.9303" fill="#84BE84" rx="3" ry="3" style="stroke:#038048;stroke-width:1;"/></g><text fill="#053583" font-family="Casual" font-size="12" lengthAdjust="spacing" textLength="197.748" x="2121.49" y="225.9163">JpegTran(imgFileName : string) : int</text></g><g class="entity" data-qualified-name="GMN22" data-source-line="103" id="ent0023"><path d="M2602.44,134.1183 L2602.44,205.3605 L2911.5665,205.3605 L2911.5665,144.1183 L2901.5665,134.1183 L2602.44,134.1183" fill="#FFF7D6" style="stroke:#D4B106;stroke-width:0.5;"/><path d="M2901.5665,134.1183 L2901.5665,144.1183 L2911.5665,144.1183 L2901.5665,134.1183" fill="#FFF7D6" style="stroke:#D4B106;stroke-width:1;"/><text fill="#000000" font-family="sans-serif" font-size="13" lengthAdjust="spacing" textLength="222.1997" x="2608.44" y="151.6866">Base abstraction for local CLI tools.</text><text fill="#000000" font-family="sans-serif" font-size="13" lengthAdjust="spacing" textLength="262.1963" x="2608.44" y="166.9972">Executable resolution, availability checks,</text><text fill="#000000" font-family="sans-serif" font-size="13" lengthAdjust="spacing" textLength="288.1265" x="2608.44" y="182.3077">install/update command hints, and execution</text><text fill="#000000" font-family="sans-serif" font-size="13" lengthAdjust="spacing" textLength="129.6763" x="2608.44" y="197.6183">are centralized here.</text></g><g class="entity" data-qualified-name="GMN25" data-source-line="110" id="ent0026"><path d="M2604.96,331.3683 L2604.96,387.2999 L2907.0406,387.2999 L2907.0406,341.3683 L2897.0406,331.3683 L2604.96,331.3683" fill="#FFF7D6" style="stroke:#D4B106;stroke-width:0.5;"/><path d="M2897.0406,331.3683 L2897.0406,341.3683 L2907.0406,341.3683 L2897.0406,331.3683" fill="#FFF7D6" style="stroke:#D4B106;stroke-width:1;"/><text fill="#000000" font-family="sans-serif" font-size="13" lengthAdjust="spacing" textLength="281.0806" x="2610.96" y="348.9366">ExecAsync dispatches external process work</text><text fill="#000000" font-family="sans-serif" font-size="13" lengthAdjust="spacing" textLength="278.4526" x="2610.96" y="364.2472">on a worker thread so callers do not run the</text><text fill="#000000" font-family="sans-serif" font-size="13" lengthAdjust="spacing" textLength="259.4731" x="2610.96" y="379.5577">OS process directly on the calling thread.</text></g><g class="entity" data-qualified-name="GMN28" data-source-line="116" id="ent0029"><path d="M2947.06,141.7783 L2947.06,197.7099 L3316.9399,197.7099 L3316.9399,151.7783 L3306.9399,141.7783 L2947.06,141.7783" fill="#FFF7D6" style="stroke:#D4B106;stroke-width:0.5;"/><path d="M3306.9399,141.7783 L3306.9399,151.7783 L3316.9399,151.7783 L3306.9399,141.7783" fill="#FFF7D6" style="stroke:#D4B106;stroke-width:1;"/><text fill="#000000" font-family="sans-serif" font-size="13" lengthAdjust="spacing" textLength="277.5322" x="2953.06" y="159.3466">Legacy wrapper preserved as the image API.</text><text fill="#000000" font-family="sans-serif" font-size="13" lengthAdjust="spacing" textLength="235.6694" x="2953.06" y="174.6572">Process execution now flows through</text><text fill="#000000" font-family="sans-serif" font-size="13" lengthAdjust="spacing" textLength="348.8799" x="2953.06" y="189.9677">ImageMagickCommand -&gt; CliCommand -&gt; RaiSystem.</text></g><!--reverse link CliCommand to CurlCommand--><g class="link" data-entity-1="ent0003" data-entity-2="ent0004" data-link-type="extension" data-source-line="91" id="lnk13"><path codeLine="91" d="M1103.65,200.0483 C863.46,200.0483 589,200.0483 589,200.0483 C589,200.0483 589,302.1883 589,342.8883" fill="none" id="CliCommand-backto-CurlCommand" style="stroke:#9B2C2C;stroke-width:1;"/><polygon fill="none" points="1121.65,200.0483,1103.65,194.0483,1103.65,206.0483,1121.65,200.0483" style="stroke:#9B2C2C;stroke-width:1;"/></g><!--reverse link CliCommand to RCloneCommand--><g class="link" data-entity-1="ent0003" data-entity-2="ent0005" data-link-type="extension" data-source-line="92" id="lnk14"><path codeLine="92" d="M1285.18,279.4883 C1285.18,300.4683 1285.18,303.6483 1285.18,320.9183" fill="none" id="CliCommand-backto-RCloneCommand" style="stroke:#9B2C2C;stroke-width:1;"/><polygon fill="none" points="1285.18,261.4883,1279.18,279.4883,1291.18,279.4883,1285.18,261.4883" style="stroke:#9B2C2C;stroke-width:1;"/></g><!--reverse link CliCommand to ZipCommand--><g class="link" data-entity-1="ent0003" data-entity-2="ent0006" data-link-type="extension" data-source-line="93" id="lnk15"><path codeLine="93" d="M1531,279.4883 C1531,310.6783 1531,324.3083 1531,342.8583" fill="none" id="CliCommand-backto-ZipCommand" style="stroke:#9B2C2C;stroke-width:1;"/><polygon fill="none" points="1531,261.4883,1525,279.4883,1537,279.4883,1531,261.4883" style="stroke:#9B2C2C;stroke-width:1;"/></g><!--reverse link CliCommand to SevenZipCommand--><g class="link" data-entity-1="ent0003" data-entity-2="ent0007" data-link-type="extension" data-source-line="94" id="lnk16"><path codeLine="94" d="M1656.11,279.4883 C1656.11,310.6783 1656.11,324.3083 1656.11,342.8583" fill="none" id="CliCommand-backto-SevenZipCommand" style="stroke:#9B2C2C;stroke-width:1;"/><polygon fill="none" points="1656.11,261.4883,1650.11,279.4883,1662.11,279.4883,1656.11,261.4883" style="stroke:#9B2C2C;stroke-width:1;"/></g><!--reverse link CliCommand to ImageMagickCommand--><g class="link" data-entity-1="ent0003" data-entity-2="ent0011" data-link-type="extension" data-source-line="95" id="lnk17"><path codeLine="95" d="M1697.89,279.3283 C1697.89,316.1483 1697.89,332.0483 1697.89,332.0483 C1697.89,332.0483 1738.02,332.0483 1795.19,332.0483" fill="none" id="CliCommand-backto-ImageMagickCommand" style="stroke:#9B2C2C;stroke-width:1;"/><polygon fill="none" points="1697.89,261.3283,1691.89,279.3283,1703.89,279.3283,1697.89,261.3283" style="stroke:#9B2C2C;stroke-width:1;"/></g><!--link CliCommand to RaiSystem--><g class="link" data-entity-1="ent0003" data-entity-2="ent0008" data-link-type="dependency" data-source-line="97" id="lnk18"><path codeLine="97" d="M1121.88,139.0483 C800.36,139.0483 343.4,139.0483 343.4,139.0483 C343.4,139.0483 343.4,251.5383 343.4,314.7183" fill="none" id="CliCommand-to-RaiSystem" style="stroke:#9B2C2C;stroke-width:1;stroke-dasharray:7,7;"/><polygon fill="#9B2C2C" points="343.4,320.7183,347.4,311.7183,343.4,315.7183,339.4,311.7183,343.4,320.7183" style="stroke:#9B2C2C;stroke-width:1;"/><text fill="#374151" font-family="'Casual'" font-size="13" lengthAdjust="spacing" textLength="41.21" x="599.81" y="135.4483">creates</text></g><!--link RaiSystem to RaiSystemResult--><g class="link" data-entity-1="ent0008" data-entity-2="ent0009" data-link-type="dependency" data-source-line="98" id="lnk19"><path codeLine="98" d="M263,397.9783 C263,443.7983 263,514.0483 263,514.0483 C263,514.0483 710.55,514.0483 889.05,514.0483" fill="none" id="RaiSystem-to-RaiSystemResult" style="stroke:#9B2C2C;stroke-width:1;"/><polygon fill="#9B2C2C" points="895.05,514.0483,886.05,510.0483,890.05,514.0483,886.05,518.0483,895.05,514.0483" style="stroke:#9B2C2C;stroke-width:1;"/><text fill="#374151" font-family="'Casual'" font-size="13" lengthAdjust="spacing" textLength="40.612" x="479.99" y="510.4483">returns</text></g><!--link ImageMagick to ImageMagickCommand--><g class="link" data-entity-1="ent0012" data-entity-2="ent0011" data-link-type="dependency" data-source-line="99" id="lnk20"><path codeLine="99" d="M2284,232.8783 C2284,261.8483 2284,289.2883 2284,314.4983" fill="none" id="ImageMagick-to-ImageMagickCommand" style="stroke:#9B2C2C;stroke-width:1;"/><polygon fill="#9B2C2C" points="2284,320.4983,2288,311.4983,2284,315.4983,2280,311.4983,2284,320.4983" style="stroke:#9B2C2C;stroke-width:1;"/><text fill="#374151" font-family="'Casual'" font-size="13" lengthAdjust="spacing" textLength="71.24" x="2212" y="273.0883">delegates to</text></g><!--link ImageMagickCommand to RaiSystemResult--><g class="link" data-entity-1="ent0011" data-entity-2="ent0009" data-link-type="dependency" data-source-line="100" id="lnk21"><path codeLine="100" d="M2183,397.9783 C2183,443.7983 2183,514.0483 2183,514.0483 C2183,514.0483 1302.43,514.0483 1042.69,514.0483" fill="none" id="ImageMagickCommand-to-RaiSystemResult" style="stroke:#9B2C2C;stroke-width:1;stroke-dasharray:7,7;"/><polygon fill="#9B2C2C" points="1036.69,514.0483,1045.69,518.0483,1041.69,514.0483,1045.69,510.0483,1036.69,514.0483" style="stroke:#9B2C2C;stroke-width:1;"/></g><!--link CliCommand to GMN22--><g class="link" data-entity-1="ent0003" data-entity-2="ent0023" data-link-type="association" data-source-line="103" id="lnk24"><path d="M1740.08,247.0483 C2145.62,247.0483 2806.35,247.0483 2806.35,247.0483 C2806.35,247.0483 2806.35,225.8683 2806.35,205.6783" fill="none" id="CliCommand-GMN22" style="stroke:#9B2C2C;stroke-width:1;stroke-dasharray:7,7;"/></g><!--link RaiSystem to GMN25--><g class="link" data-entity-1="ent0008" data-entity-2="ent0026" data-link-type="association" data-source-line="110" id="lnk27"><path d="M182.6,320.7983 C182.6,305.3083 182.6,291.0483 182.6,291.0483 C182.6,291.0483 2705.65,291.0483 2705.65,291.0483 C2705.65,291.0483 2705.65,312.3583 2705.65,331.1683" fill="none" id="RaiSystem-GMN25" style="stroke:#9B2C2C;stroke-width:1;stroke-dasharray:7,7;"/></g><!--link ImageMagick to GMN28--><g class="link" data-entity-1="ent0012" data-entity-2="ent0029" data-link-type="association" data-source-line="116" id="lnk30"><path d="M2466.96,219.0483 C2716.25,219.0483 3132,219.0483 3132,219.0483 C3132,219.0483 3132,209.0983 3132,198.1383" fill="none" id="ImageMagick-GMN28" style="stroke:#9B2C2C;stroke-width:1;stroke-dasharray:7,7;"/></g><?plantuml-src xLVVJ-Cu47vk_WgBVRYk3dgq1Gg8HIfTzguhM13bjDAzESuajUhOaUtGpTtolzyaQLhd1x0dxUCzqSnyyyruPZmUVY4F880QE2VZmMHmvfaLbmdLD2O-PQj8grG6CoMK9kibj-3epP86QirbH48gZAiHN8BD4Y1AswLo51yvZV3l9oNj5ne3sPjHarAnrmrPyB-1Z4ySvKnGOrwptW8Asz5fKpMrLdC_jJ1dIXQOuU6BcAsZqi-hk395xmwFnyUdurUHNu57Iqkaql4Rd6LyeoRc5Z2fmPjPsC7UvDc4T7puUYuMDXFmGk1NIWUWgoo4avCJQ44Q_VIEiT0FXrtLsm26m-7fQE80hcKQrppvHyVZmxCcekaeX73CcZoEdmaR1RNyV54MsYnXE0bEcYWtck387nwwYAdMQhrHdlaZDc9DfHF5U78qF1vs0UfrNl802CI9pKWCiG_QU9xb5aip4tocufZAWFp1GLFDbfdd9NWG6Y71dRdX_Xxvn-jHtrXDcIKipxXhXyhUhzVVWAMM-W8Ap-S4qNZFSzLzITQIV-Gc4JHhoMT8oWDgOSTf433FAu0HukT52RxCqNCpVQ9SvEB-UuJvIebS_gYp1p1AF3aqVPLQ0jlFhLVNhctqlXRTGohxL4SOYhHcgo4VoDvU3doWV94P2p7ofC9kBAOca-mbitt2g6GW1BLSoKUr0ec0MKlsWGGGKYJD_JnIixfeE2loyJlOkJIM2h6fJoD-rF-PvDdjKZzxNczJtrHN19NeOIQKX5hLhr8kWcbrhBv9VRPHLvpx14_TaQTQGXTRk_z2qPtg7LUPz1ya_9b5UAuozXTF6ZbSm1D8HxpDRKMokqr5iyOcgdKfbxRIbyVxcQspi5JR_XPohnK3Oqg0kNIxes5T1Zrhf3cNJLijxo1lyCsloUzIc-2XNT7rDux3Be3TsRyglGBzkDH0WtbGoP-zPsTiONpp67yLawiCkVY-fH5dg_zR-0TQk2DlLPdb4s2VR48IRX6T5grWAiaz6oVoKAlO-RIgo_nMHPg7sTjUuaGPN3BV0iu3B6zEs8w7voTqldNPqnqaTsXxBwC-ZwDFlF7IER3F2KIFcihNSKN7Ei_enVU3WzhORUfgyxUbTOPAKzKSEarz-shK0XiCBftvT4uOtZmBnjl93WukMoFX7FDeKosDvtPGZkouYUVOaWAYd1RxmUj0r8BOt1PFuZP5TB68gj1PIRpU5VvxGggL1UjDGboNX69KaDdD77qeOGPUR_VAvrLN8isnUBVAZO8BZWiJMm9RcNslnyjdzRUqU3v9TIMNM4s3DlYpN2sG0jSbZGXiEKq5hjA80Wq33n2K1zqCVNkoCgJYsfC0zoDgqRr1OWjQOl19EPF96eUWryDpqU8dQ6ABWKYCmYaW16vu952vBw9JYKhmUdUBhNd0DJ0hCg8ANM6IZv6IvEKudS9ulHii6Cl8MjCamG0Ip23e9pmhDGLfUQ-cztDCzEOjsMK8wTSa56gTOt5bZfPUhwFis2vE9xfjvWJvBm00?></g></svg>