<svg xmlns="http://www.w3.org/2000/svg" xmlns:xlink="http://www.w3.org/1999/xlink" contentStyleType="text/css" data-diagram-type="CLASS" height="640px" preserveAspectRatio="none" style="width:3559px;height:640px;background:#FFFFFF;" version="1.1" viewBox="0 0 3559 640" width="3559px" zoomAndPan="magnify"><?plantuml 1.2026.5?><defs/><g><g class="title" data-source-line="31"><text fill="#000000" font-family="sans-serif" font-size="14" font-weight="700" lengthAdjust="spacing" textLength="165.9082" x="1693.5158" y="23.5352">CliCommand Hierarchy</text></g><!--cluster OsLib--><g class="cluster" data-qualified-name="OsLib" data-source-line="33" id="ent0001"><path d="M8.5,43.4883 L50.9121,43.4883 A3.75,3.75 0 0 1 53.4121,45.9883 L60.4121,65.9766 L1915.5,65.9766 A2.5,2.5 0 0 1 1918,68.4766 L1918,622.6483 A2.5,2.5 0 0 1 1915.5,625.1483 L8.5,625.1483 A2.5,2.5 0 0 1 6,622.6483 L6,45.9883 A2.5,2.5 0 0 1 8.5,43.4883" fill="none" style="stroke:#000000;stroke-width:1.5;"/><line style="stroke:#000000;stroke-width:1.5;" x1="6" x2="60.4121" y1="65.9766" y2="65.9766"/><text fill="#000000" font-family="sans-serif" font-size="14" font-weight="700" lengthAdjust="spacing" textLength="41.4121" x="10" y="59.0234">OsLib</text></g><!--cluster RaiImage--><g class="cluster" data-qualified-name="RaiImage" data-source-line="73" id="ent0009"><path d="M1944.5,75.7583 L2011.8291,75.7583 A3.75,3.75 0 0 1 2014.3291,78.2583 L2021.3291,98.2466 L2811.5,98.2466 A2.5,2.5 0 0 1 2814,100.7466 L2814,437.8483 A2.5,2.5 0 0 1 2811.5,440.3483 L1944.5,440.3483 A2.5,2.5 0 0 1 1942,437.8483 L1942,78.2583 A2.5,2.5 0 0 1 1944.5,75.7583" fill="none" style="stroke:#000000;stroke-width:1.5;"/><line style="stroke:#000000;stroke-width:1.5;" x1="1942" x2="2021.3291" y1="98.2466" y2="98.2466"/><text fill="#000000" font-family="sans-serif" font-size="14" font-weight="700" lengthAdjust="spacing" textLength="66.3291" x="1946" y="91.2934">RaiImage</text></g><!--class CliCommand--><g class="entity" data-qualified-name="OsLib.CliCommand" data-source-line="34" id="ent0002"><rect fill="#CCFBF1" height="203.4609" rx="2.5" ry="2.5" style="stroke:#0F766E;stroke-width:0.5;" width="666.8281" x="1235.59" y="78.4883"/><ellipse cx="1527.2804" cy="94.4883" fill="#A9DCDF" rx="11" ry="11" style="stroke:#181818;stroke-width:1;"/><path d="M1527.1437,89.8364 L1525.9899,94.9082 L1528.3058,94.9082 Z M1525.6496,87.5952 L1528.6462,87.5952 L1531.9914,99.9883 L1529.5426,99.9883 L1528.779,96.9253 L1525.5002,96.9253 L1524.7531,99.9883 L1522.3044,99.9883 Z " fill="#000000"/><text fill="#111827" font-family="Casual" font-size="12" font-style="italic" lengthAdjust="spacing" textLength="74.9473" x="1547.7804" y="99.0234">CliCommand</text><line style="stroke:#0F766E;stroke-width:0.5;" x1="1236.59" x2="1901.4181" y1="110.4883" y2="110.4883"/><g data-visibility-modifier="PUBLIC_FIELD"><ellipse cx="1246.59" cy="123.0547" fill="none" rx="3" ry="3" style="stroke:#038048;stroke-width:1;"/></g><text fill="#053583" font-family="Casual" font-size="12" lengthAdjust="spacing" textLength="141.6504" x="1255.59" y="126.0898">ExecutableName : string</text><g data-visibility-modifier="PUBLIC_FIELD"><ellipse cx="1246.59" cy="137.1875" fill="none" rx="3" ry="3" style="stroke:#038048;stroke-width:1;"/></g><text fill="#053583" font-family="Casual" font-size="12" lengthAdjust="spacing" textLength="125.9004" x="1255.59" y="140.2227">PackageName : string</text><g data-visibility-modifier="PUBLIC_FIELD"><ellipse cx="1246.59" cy="151.3203" fill="none" rx="3" ry="3" style="stroke:#038048;stroke-width:1;"/></g><text fill="#053583" font-family="Casual" font-size="12" lengthAdjust="spacing" textLength="121.1777" x="1255.59" y="154.3555">DisplayName : string</text><g data-visibility-modifier="PUBLIC_FIELD"><ellipse cx="1246.59" cy="165.4531" fill="none" rx="3" ry="3" style="stroke:#038048;stroke-width:1;"/></g><text fill="#053583" font-family="Casual" font-size="12" lengthAdjust="spacing" textLength="264.2051" x="1255.59" y="168.4883">CandidateExecutables : IEnumerable&lt;string&gt;</text><line style="stroke:#0F766E;stroke-width:0.5;" x1="1236.59" x2="1901.4181" y1="175.0195" y2="175.0195"/><g data-visibility-modifier="PUBLIC_METHOD"><ellipse cx="1246.59" cy="187.5859" fill="#84BE84" rx="3" ry="3" style="stroke:#038048;stroke-width:1;"/></g><text fill="#053583" font-family="Casual" font-size="12" lengthAdjust="spacing" textLength="106.9219" x="1255.59" y="190.6211">IsAvailable() : bool</text><g data-visibility-modifier="PUBLIC_METHOD"><ellipse cx="1246.59" cy="201.7188" fill="#84BE84" rx="3" ry="3" style="stroke:#038048;stroke-width:1;"/></g><text fill="#053583" font-family="Casual" font-size="12" lengthAdjust="spacing" textLength="302.373" x="1255.59" y="204.7539">TryResolveExecutable(out executable : string) : bool</text><g data-visibility-modifier="PUBLIC_METHOD"><ellipse cx="1246.59" cy="215.8516" fill="#84BE84" rx="3" ry="3" style="stroke:#038048;stroke-width:1;"/></g><text fill="#053583" font-family="Casual" font-size="12" lengthAdjust="spacing" textLength="160.2012" x="1255.59" y="218.8867">ResolveExecutable() : string</text><g data-visibility-modifier="PUBLIC_METHOD"><ellipse cx="1246.59" cy="229.9844" fill="#84BE84" rx="3" ry="3" style="stroke:#038048;stroke-width:1;"/></g><text fill="#053583" font-family="Casual" font-size="12" lengthAdjust="spacing" textLength="270.1934" x="1255.59" y="233.0195">Run(arguments : string = "") : RaiSystemResult</text><g data-visibility-modifier="PUBLIC_METHOD"><ellipse cx="1246.59" cy="244.1172" fill="#84BE84" rx="3" ry="3" style="stroke:#038048;stroke-width:1;"/></g><text fill="#053583" font-family="Casual" font-size="12" lengthAdjust="spacing" textLength="640.8281" x="1255.59" y="247.1523">RunAsync(arguments : string = "", cancellationToken : CancellationToken = default) : Task&lt;RaiSystemResult&gt;</text><g data-visibility-modifier="PUBLIC_METHOD"><ellipse cx="1246.59" cy="258.25" fill="#84BE84" rx="3" ry="3" style="stroke:#038048;stroke-width:1;"/></g><text fill="#053583" font-family="Casual" font-size="12" lengthAdjust="spacing" textLength="167.7363" x="1255.59" y="261.2852">GetInstallCommand() : string</text><g data-visibility-modifier="PUBLIC_METHOD"><ellipse cx="1246.59" cy="272.3828" fill="#84BE84" rx="3" ry="3" style="stroke:#038048;stroke-width:1;"/></g><text fill="#053583" font-family="Casual" font-size="12" lengthAdjust="spacing" textLength="173.8828" x="1255.59" y="275.418">GetUpdateCommand() : string</text></g><!--class CurlCommand--><g class="entity" data-qualified-name="OsLib.CurlCommand" data-source-line="48" id="ent0003"><rect fill="#CCFBF1" height="32" rx="2.5" ry="2.5" style="stroke:#0F766E;stroke-width:0.5;" width="115.8359" x="587.08" y="367.1483"/><ellipse cx="602.08" cy="383.1483" fill="#ADD1B2" rx="11" ry="11" style="stroke:#181818;stroke-width:1;"/><path d="M604.5531,389.2913 Q603.9721,389.5902 603.3329,389.7396 Q602.6938,389.889 601.9882,389.889 Q599.4814,389.889 598.1615,388.2371 Q596.8417,386.5853 596.8417,383.4642 Q596.8417,380.3348 598.1615,378.6829 Q599.4814,377.0311 601.9882,377.0311 Q602.6938,377.0311 603.3412,377.1805 Q603.9887,377.3299 604.5531,377.6287 L604.5531,380.3514 Q603.9223,379.7704 603.3288,379.5006 Q602.7353,379.2308 602.1044,379.2308 Q600.7597,379.2308 600.0749,380.2975 Q599.3901,381.3641 599.3901,383.4642 Q599.3901,385.556 600.0749,386.6226 Q600.7597,387.6893 602.1044,387.6893 Q602.7353,387.6893 603.3288,387.4195 Q603.9223,387.1497 604.5531,386.5687 Z " fill="#000000"/><text fill="#111827" font-family="Casual" font-size="12" lengthAdjust="spacing" textLength="83.8359" x="616.08" y="387.6834">CurlCommand</text></g><!--class RCloneCommand--><g class="entity" data-qualified-name="OsLib.RCloneCommand" data-source-line="49" id="ent0004"><rect fill="#CCFBF1" height="82.3984" rx="2.5" ry="2.5" style="stroke:#0F766E;stroke-width:0.5;" width="840.1367" x="737.93" y="341.9483"/><ellipse cx="1103.4632" cy="357.9483" fill="#ADD1B2" rx="11" ry="11" style="stroke:#181818;stroke-width:1;"/><path d="M1105.9363,364.0913 Q1105.3553,364.3902 1104.7161,364.5396 Q1104.077,364.689 1103.3714,364.689 Q1100.8646,364.689 1099.5447,363.0371 Q1098.2249,361.3853 1098.2249,358.2642 Q1098.2249,355.1348 1099.5447,353.4829 Q1100.8646,351.8311 1103.3714,351.8311 Q1104.077,351.8311 1104.7244,351.9805 Q1105.3719,352.1299 1105.9363,352.4288 L1105.9363,355.1514 Q1105.3055,354.5704 1104.712,354.3006 Q1104.1185,354.0308 1103.4876,354.0308 Q1102.1429,354.0308 1101.4581,355.0975 Q1100.7733,356.1641 1100.7733,358.2642 Q1100.7733,360.356 1101.4581,361.4226 Q1102.1429,362.4893 1103.4876,362.4893 Q1104.1185,362.4893 1104.712,362.2195 Q1105.3055,361.9497 1105.9363,361.3687 Z " fill="#000000"/><text fill="#111827" font-family="Casual" font-size="12" lengthAdjust="spacing" textLength="100.5703" x="1123.9632" y="362.4834">RCloneCommand</text><line style="stroke:#0F766E;stroke-width:0.5;" x1="738.93" x2="1577.0667" y1="373.9483" y2="373.9483"/><g data-visibility-modifier="PUBLIC_METHOD"><ellipse cx="748.93" cy="386.5147" fill="#84BE84" rx="3" ry="3" style="stroke:#038048;stroke-width:1;"/></g><text fill="#053583" font-family="Casual" font-size="12" lengthAdjust="spacing" textLength="374.1152" x="757.93" y="389.5498">BuildArguments(subcommand : string, args : string = "") : string</text><g data-visibility-modifier="PUBLIC_METHOD"><ellipse cx="748.93" cy="400.6475" fill="#84BE84" rx="3" ry="3" style="stroke:#038048;stroke-width:1;"/></g><text fill="#053583" font-family="Casual" font-size="12" lengthAdjust="spacing" textLength="443.502" x="757.93" y="403.6827">RunSubcommand(subcommand : string, args : string = "") : RaiSystemResult</text><g data-visibility-modifier="PUBLIC_METHOD"><ellipse cx="748.93" cy="414.7803" fill="#84BE84" rx="3" ry="3" style="stroke:#038048;stroke-width:1;"/></g><text fill="#053583" font-family="Casual" font-size="12" lengthAdjust="spacing" textLength="814.1367" x="757.93" y="417.8155">RunSubcommandAsync(subcommand : string, args : string = "", cancellationToken : CancellationToken = default) : Task&lt;RaiSystemResult&gt;</text></g><!--class ZipCommand--><g class="entity" data-qualified-name="OsLib.ZipCommand" data-source-line="54" id="ent0005"><rect fill="#CCFBF1" height="32" rx="2.5" ry="2.5" style="stroke:#0F766E;stroke-width:0.5;" width="109.9824" x="1613.01" y="367.1483"/><ellipse cx="1628.01" cy="383.1483" fill="#ADD1B2" rx="11" ry="11" style="stroke:#181818;stroke-width:1;"/><path d="M1630.4831,389.2913 Q1629.9021,389.5902 1629.2629,389.7396 Q1628.6238,389.889 1627.9182,389.889 Q1625.4114,389.889 1624.0915,388.2371 Q1622.7717,386.5853 1622.7717,383.4642 Q1622.7717,380.3348 1624.0915,378.6829 Q1625.4114,377.0311 1627.9182,377.0311 Q1628.6238,377.0311 1629.2712,377.1805 Q1629.9187,377.3299 1630.4831,377.6287 L1630.4831,380.3514 Q1629.8523,379.7704 1629.2588,379.5006 Q1628.6653,379.2308 1628.0344,379.2308 Q1626.6897,379.2308 1626.0049,380.2975 Q1625.3201,381.3641 1625.3201,383.4642 Q1625.3201,385.556 1626.0049,386.6226 Q1626.6897,387.6893 1628.0344,387.6893 Q1628.6653,387.6893 1629.2588,387.4195 Q1629.8523,387.1497 1630.4831,386.5687 Z " fill="#000000"/><text fill="#111827" font-family="Casual" font-size="12" lengthAdjust="spacing" textLength="77.9824" x="1642.01" y="387.6834">ZipCommand</text></g><!--class SevenZipCommand--><g class="entity" data-qualified-name="OsLib.SevenZipCommand" data-source-line="55" id="ent0006"><rect fill="#CCFBF1" height="32" rx="2.5" ry="2.5" style="stroke:#0F766E;stroke-width:0.5;" width="143.4746" x="1758.26" y="367.1483"/><ellipse cx="1773.26" cy="383.1483" fill="#ADD1B2" rx="11" ry="11" style="stroke:#181818;stroke-width:1;"/><path d="M1775.7331,389.2913 Q1775.1521,389.5902 1774.5129,389.7396 Q1773.8738,389.889 1773.1682,389.889 Q1770.6614,389.889 1769.3415,388.2371 Q1768.0217,386.5853 1768.0217,383.4642 Q1768.0217,380.3348 1769.3415,378.6829 Q1770.6614,377.0311 1773.1682,377.0311 Q1773.8738,377.0311 1774.5212,377.1805 Q1775.1687,377.3299 1775.7331,377.6287 L1775.7331,380.3514 Q1775.1023,379.7704 1774.5088,379.5006 Q1773.9153,379.2308 1773.2844,379.2308 Q1771.9397,379.2308 1771.2549,380.2975 Q1770.5701,381.3641 1770.5701,383.4642 Q1770.5701,385.556 1771.2549,386.6226 Q1771.9397,387.6893 1773.2844,387.6893 Q1773.9153,387.6893 1774.5088,387.4195 Q1775.1023,387.1497 1775.7331,386.5687 Z " fill="#000000"/><text fill="#111827" font-family="Casual" font-size="12" lengthAdjust="spacing" textLength="111.4746" x="1787.26" y="387.6834">SevenZipCommand</text></g><!--class RaiSystem--><g class="entity" data-qualified-name="OsLib.RaiSystem" data-source-line="57" id="ent0007"><rect fill="#CCFBF1" height="82.3984" rx="2.5" ry="2.5" style="stroke:#0F766E;stroke-width:0.5;" width="529.6367" x="22.18" y="341.9483"/><ellipse cx="253.2933" cy="357.9483" fill="#ADD1B2" rx="11" ry="11" style="stroke:#181818;stroke-width:1;"/><path d="M255.7664,364.0913 Q255.1854,364.3902 254.5462,364.5396 Q253.9071,364.689 253.2015,364.689 Q250.6946,364.689 249.3748,363.0371 Q248.055,361.3853 248.055,358.2642 Q248.055,355.1348 249.3748,353.4829 Q250.6946,351.8311 253.2015,351.8311 Q253.9071,351.8311 254.5545,351.9805 Q255.202,352.1299 255.7664,352.4288 L255.7664,355.1514 Q255.1356,354.5704 254.5421,354.3006 Q253.9486,354.0308 253.3177,354.0308 Q251.973,354.0308 251.2882,355.0975 Q250.6033,356.1641 250.6033,358.2642 Q250.6033,360.356 251.2882,361.4226 Q251.973,362.4893 253.3177,362.4893 Q253.9486,362.4893 254.5421,362.2195 Q255.1356,361.9497 255.7664,361.3687 Z " fill="#000000"/><text fill="#111827" font-family="Casual" font-size="12" lengthAdjust="spacing" textLength="58.9102" x="273.7933" y="362.4834">RaiSystem</text><line style="stroke:#0F766E;stroke-width:0.5;" x1="23.18" x2="550.8167" y1="373.9483" y2="373.9483"/><g data-visibility-modifier="PUBLIC_METHOD"><ellipse cx="33.18" cy="386.5147" fill="#84BE84" rx="3" ry="3" style="stroke:#038048;stroke-width:1;"/></g><text fill="#053583" font-family="Casual" font-size="12" lengthAdjust="spacing" textLength="154.5059" x="42.18" y="389.5498">Exec(out msg : string) : int</text><g data-visibility-modifier="PUBLIC_METHOD"><ellipse cx="33.18" cy="400.6475" fill="#84BE84" rx="3" ry="3" style="stroke:#038048;stroke-width:1;"/></g><text fill="#053583" font-family="Casual" font-size="12" lengthAdjust="spacing" textLength="503.6367" x="42.18" y="403.6827">ExecAsync(cancellationToken : CancellationToken = default) : Task&lt;RaiSystemResult&gt;</text><g data-visibility-modifier="PUBLIC_METHOD"><ellipse cx="33.18" cy="414.7803" fill="#84BE84" rx="3" ry="3" style="stroke:#038048;stroke-width:1;"/></g><text fill="#053583" font-family="Casual" font-size="12" lengthAdjust="spacing" textLength="178.4883" x="42.18" y="417.8155">Start() : Task&lt;ProcessResults&gt;</text></g><!--class RaiSystemResult--><g class="entity" data-qualified-name="OsLib.RaiSystemResult" data-source-line="63" id="ent0008"><rect fill="#CCFBF1" height="124.7969" rx="2.5" ry="2.5" style="stroke:#0F766E;stroke-width:0.5;" width="155.0117" x="977.49" y="484.3483"/><ellipse cx="1005.228" cy="500.3483" fill="#ADD1B2" rx="11" ry="11" style="stroke:#181818;stroke-width:1;"/><path d="M1007.7011,506.4913 Q1007.1201,506.7902 1006.4809,506.9396 Q1005.8418,507.089 1005.1362,507.089 Q1002.6294,507.089 1001.3095,505.4371 Q999.9897,503.7853 999.9897,500.6642 Q999.9897,497.5348 1001.3095,495.8829 Q1002.6294,494.2311 1005.1362,494.2311 Q1005.8418,494.2311 1006.4892,494.3805 Q1007.1367,494.5299 1007.7011,494.8287 L1007.7011,497.5514 Q1007.0703,496.9704 1006.4768,496.7006 Q1005.8833,496.4308 1005.2524,496.4308 Q1003.9077,496.4308 1003.2229,497.4975 Q1002.538,498.5641 1002.538,500.6642 Q1002.538,502.756 1003.2229,503.8226 Q1003.9077,504.8893 1005.2524,504.8893 Q1005.8833,504.8893 1006.4768,504.6195 Q1007.0703,504.3497 1007.7011,503.7687 Z " fill="#000000"/><text fill="#111827" font-family="Casual" font-size="12" lengthAdjust="spacing" textLength="94.7051" x="1022.0587" y="504.8834">RaiSystemResult</text><line style="stroke:#0F766E;stroke-width:0.5;" x1="978.49" x2="1131.5017" y1="516.3483" y2="516.3483"/><g data-visibility-modifier="PUBLIC_FIELD"><ellipse cx="988.49" cy="528.9147" fill="none" rx="3" ry="3" style="stroke:#038048;stroke-width:1;"/></g><text fill="#053583" font-family="Casual" font-size="12" lengthAdjust="spacing" textLength="105.0117" x="997.49" y="531.9498">Command : string</text><g data-visibility-modifier="PUBLIC_FIELD"><ellipse cx="988.49" cy="543.0475" fill="none" rx="3" ry="3" style="stroke:#038048;stroke-width:1;"/></g><text fill="#053583" font-family="Casual" font-size="12" lengthAdjust="spacing" textLength="109.3652" x="997.49" y="546.0827">Arguments : string</text><g data-visibility-modifier="PUBLIC_FIELD"><ellipse cx="988.49" cy="557.1803" fill="none" rx="3" ry="3" style="stroke:#038048;stroke-width:1;"/></g><text fill="#053583" font-family="Casual" font-size="12" lengthAdjust="spacing" textLength="129.0117" x="997.49" y="560.2155">CommandLine : string</text><g data-visibility-modifier="PUBLIC_FIELD"><ellipse cx="988.49" cy="571.3131" fill="none" rx="3" ry="3" style="stroke:#038048;stroke-width:1;"/></g><text fill="#053583" font-family="Casual" font-size="12" lengthAdjust="spacing" textLength="86.0508" x="997.49" y="574.3483">Output : string</text><g data-visibility-modifier="PUBLIC_FIELD"><ellipse cx="988.49" cy="585.4459" fill="none" rx="3" ry="3" style="stroke:#038048;stroke-width:1;"/></g><text fill="#053583" font-family="Casual" font-size="12" lengthAdjust="spacing" textLength="78.5273" x="997.49" y="588.4811">ExitCode : int</text><g data-visibility-modifier="PUBLIC_FIELD"><ellipse cx="988.49" cy="599.5787" fill="none" rx="3" ry="3" style="stroke:#038048;stroke-width:1;"/></g><text fill="#053583" font-family="Casual" font-size="12" lengthAdjust="spacing" textLength="119.7715" x="997.49" y="602.6139">WorkerThreadId : int</text></g><!--class ImageMagickCommand--><g class="entity" data-qualified-name="RaiImage.ImageMagickCommand" data-source-line="74" id="ent0010"><rect fill="#CCFBF1" height="82.3984" rx="2.5" ry="2.5" style="stroke:#0F766E;stroke-width:0.5;" width="840.1367" x="1957.93" y="341.9483"/><ellipse cx="2305.6302" cy="357.9483" fill="#ADD1B2" rx="11" ry="11" style="stroke:#181818;stroke-width:1;"/><path d="M2308.1033,364.0913 Q2307.5223,364.3902 2306.8831,364.5396 Q2306.244,364.689 2305.5384,364.689 Q2303.0316,364.689 2301.7117,363.0371 Q2300.3919,361.3853 2300.3919,358.2642 Q2300.3919,355.1348 2301.7117,353.4829 Q2303.0316,351.8311 2305.5384,351.8311 Q2306.244,351.8311 2306.8914,351.9805 Q2307.5389,352.1299 2308.1033,352.4288 L2308.1033,355.1514 Q2307.4725,354.5704 2306.879,354.3006 Q2306.2855,354.0308 2305.6546,354.0308 Q2304.3099,354.0308 2303.6251,355.0975 Q2302.9403,356.1641 2302.9403,358.2642 Q2302.9403,360.356 2303.6251,361.4226 Q2304.3099,362.4893 2305.6546,362.4893 Q2306.2855,362.4893 2306.879,362.2195 Q2307.4725,361.9497 2308.1033,361.3687 Z " fill="#000000"/><text fill="#111827" font-family="Casual" font-size="12" lengthAdjust="spacing" textLength="136.2363" x="2326.1302" y="362.4834">ImageMagickCommand</text><line style="stroke:#0F766E;stroke-width:0.5;" x1="1958.93" x2="2797.0667" y1="373.9483" y2="373.9483"/><g data-visibility-modifier="PUBLIC_METHOD"><ellipse cx="1968.93" cy="386.5147" fill="#84BE84" rx="3" ry="3" style="stroke:#038048;stroke-width:1;"/></g><text fill="#053583" font-family="Casual" font-size="12" lengthAdjust="spacing" textLength="374.1152" x="1977.93" y="389.5498">BuildArguments(subcommand : string, args : string = "") : string</text><g data-visibility-modifier="PUBLIC_METHOD"><ellipse cx="1968.93" cy="400.6475" fill="#84BE84" rx="3" ry="3" style="stroke:#038048;stroke-width:1;"/></g><text fill="#053583" font-family="Casual" font-size="12" lengthAdjust="spacing" textLength="443.502" x="1977.93" y="403.6827">RunSubcommand(subcommand : string, args : string = "") : RaiSystemResult</text><g data-visibility-modifier="PUBLIC_METHOD"><ellipse cx="1968.93" cy="414.7803" fill="#84BE84" rx="3" ry="3" style="stroke:#038048;stroke-width:1;"/></g><text fill="#053583" font-family="Casual" font-size="12" lengthAdjust="spacing" textLength="814.1367" x="1977.93" y="417.8155">RunSubcommandAsync(subcommand : string, args : string = "", cancellationToken : CancellationToken = default) : Task&lt;RaiSystemResult&gt;</text></g><!--class ImageMagick--><g class="entity" data-qualified-name="RaiImage.ImageMagick" data-source-line="80" id="ent0011"><rect fill="#CCFBF1" height="138.9297" rx="2.5" ry="2.5" style="stroke:#0F766E;stroke-width:0.5;" width="367.8828" x="2310.06" y="110.7583"/><ellipse cx="2451.4868" cy="126.7583" fill="#ADD1B2" rx="11" ry="11" style="stroke:#181818;stroke-width:1;"/><path d="M2453.9599,132.9013 Q2453.3788,133.2002 2452.7397,133.3496 Q2452.1005,133.499 2451.395,133.499 Q2448.8881,133.499 2447.5683,131.8471 Q2446.2485,130.1953 2446.2485,127.0742 Q2446.2485,123.9448 2447.5683,122.2929 Q2448.8881,120.6411 2451.395,120.6411 Q2452.1005,120.6411 2452.748,120.7905 Q2453.3954,120.9399 2453.9599,121.2387 L2453.9599,123.9614 Q2453.329,123.3804 2452.7355,123.1106 Q2452.142,122.8408 2451.5112,122.8408 Q2450.1664,122.8408 2449.4816,123.9075 Q2448.7968,124.9741 2448.7968,127.0742 Q2448.7968,129.166 2449.4816,130.2326 Q2450.1664,131.2993 2451.5112,131.2993 Q2452.142,131.2993 2452.7355,131.0295 Q2453.329,130.7597 2453.9599,130.1787 Z " fill="#000000"/><text fill="#111827" font-family="Casual" font-size="12" lengthAdjust="spacing" textLength="76.5293" x="2471.9868" y="131.2934">ImageMagick</text><line style="stroke:#0F766E;stroke-width:0.5;" x1="2311.06" x2="2676.9428" y1="142.7583" y2="142.7583"/><g data-visibility-modifier="PUBLIC_METHOD"><ellipse cx="2321.06" cy="155.3247" fill="#84BE84" rx="3" ry="3" style="stroke:#038048;stroke-width:1;"/></g><text fill="#053583" font-family="Casual" font-size="12" lengthAdjust="spacing" textLength="203.9414" x="2330.06" y="158.3598">Convert(commandline : string) : int</text><g data-visibility-modifier="PUBLIC_METHOD"><ellipse cx="2321.06" cy="169.4575" fill="#84BE84" rx="3" ry="3" style="stroke:#038048;stroke-width:1;"/></g><text fill="#053583" font-family="Casual" font-size="12" lengthAdjust="spacing" textLength="314.6895" x="2330.06" y="172.4927">Convert(options : string, from : string, to : string) : int</text><g data-visibility-modifier="PUBLIC_METHOD"><ellipse cx="2321.06" cy="183.5903" fill="#84BE84" rx="3" ry="3" style="stroke:#038048;stroke-width:1;"/></g><text fill="#053583" font-family="Casual" font-size="12" lengthAdjust="spacing" textLength="202.7754" x="2330.06" y="186.6255">Mogrify(commandline : string) : int</text><g data-visibility-modifier="PUBLIC_METHOD"><ellipse cx="2321.06" cy="197.7231" fill="#84BE84" rx="3" ry="3" style="stroke:#038048;stroke-width:1;"/></g><text fill="#053583" font-family="Casual" font-size="12" lengthAdjust="spacing" textLength="221.0859" x="2330.06" y="200.7583">Composite(commandline : string) : int</text><g data-visibility-modifier="PUBLIC_METHOD"><ellipse cx="2321.06" cy="211.8559" fill="#84BE84" rx="3" ry="3" style="stroke:#038048;stroke-width:1;"/></g><text fill="#053583" font-family="Casual" font-size="12" lengthAdjust="spacing" textLength="341.8828" x="2330.06" y="214.8911">Identify(options : string, image : string, result : string) : int</text><g data-visibility-modifier="PUBLIC_METHOD"><ellipse cx="2321.06" cy="225.9887" fill="#84BE84" rx="3" ry="3" style="stroke:#038048;stroke-width:1;"/></g><text fill="#053583" font-family="Casual" font-size="12" lengthAdjust="spacing" textLength="201.8906" x="2330.06" y="229.0239">OptiPng(imgFileName : string) : int</text><g data-visibility-modifier="PUBLIC_METHOD"><ellipse cx="2321.06" cy="240.1216" fill="#84BE84" rx="3" ry="3" style="stroke:#038048;stroke-width:1;"/></g><text fill="#053583" font-family="Casual" font-size="12" lengthAdjust="spacing" textLength="207.5215" x="2330.06" y="243.1567">JpegTran(imgFileName : string) : int</text></g><g class="entity" data-qualified-name="GMN21" data-source-line="103" id="ent0022"><path d="M2830.44,144.5983 L2830.44,215.8405 L3139.5665,215.8405 L3139.5665,154.5983 L3129.5665,144.5983 L2830.44,144.5983" fill="#FFF7D6" style="stroke:#D4B106;stroke-width:0.5;"/><path d="M3129.5665,144.5983 L3129.5665,154.5983 L3139.5665,154.5983 L3129.5665,144.5983" fill="#FFF7D6" style="stroke:#D4B106;stroke-width:1;"/><text fill="#000000" font-family="sans-serif" font-size="13" lengthAdjust="spacing" textLength="222.1997" x="2836.44" y="162.1666">Base abstraction for local CLI tools.</text><text fill="#000000" font-family="sans-serif" font-size="13" lengthAdjust="spacing" textLength="262.1963" x="2836.44" y="177.4772">Executable resolution, availability checks,</text><text fill="#000000" font-family="sans-serif" font-size="13" lengthAdjust="spacing" textLength="288.1265" x="2836.44" y="192.7877">install/update command hints, and execution</text><text fill="#000000" font-family="sans-serif" font-size="13" lengthAdjust="spacing" textLength="129.6763" x="2836.44" y="208.0983">are centralized here.</text></g><g class="entity" data-qualified-name="GMN24" data-source-line="110" id="ent0025"><path d="M2832.96,355.1883 L2832.96,411.1199 L3135.0406,411.1199 L3135.0406,365.1883 L3125.0406,355.1883 L2832.96,355.1883" fill="#FFF7D6" style="stroke:#D4B106;stroke-width:0.5;"/><path d="M3125.0406,355.1883 L3125.0406,365.1883 L3135.0406,365.1883 L3125.0406,355.1883" fill="#FFF7D6" style="stroke:#D4B106;stroke-width:1;"/><text fill="#000000" font-family="sans-serif" font-size="13" lengthAdjust="spacing" textLength="281.0806" x="2838.96" y="372.7566">ExecAsync dispatches external process work</text><text fill="#000000" font-family="sans-serif" font-size="13" lengthAdjust="spacing" textLength="278.4526" x="2838.96" y="388.0672">on a worker thread so callers do not run the</text><text fill="#000000" font-family="sans-serif" font-size="13" lengthAdjust="spacing" textLength="259.4731" x="2838.96" y="403.3777">OS process directly on the calling thread.</text></g><g class="entity" data-qualified-name="GMN27" data-source-line="116" id="ent0028"><path d="M3175.06,152.2583 L3175.06,208.1899 L3544.9399,208.1899 L3544.9399,162.2583 L3534.9399,152.2583 L3175.06,152.2583" fill="#FFF7D6" style="stroke:#D4B106;stroke-width:0.5;"/><path d="M3534.9399,152.2583 L3534.9399,162.2583 L3544.9399,162.2583 L3534.9399,152.2583" fill="#FFF7D6" style="stroke:#D4B106;stroke-width:1;"/><text fill="#000000" font-family="sans-serif" font-size="13" lengthAdjust="spacing" textLength="277.5322" x="3181.06" y="169.8266">Legacy wrapper preserved as the image API.</text><text fill="#000000" font-family="sans-serif" font-size="13" lengthAdjust="spacing" textLength="235.6694" x="3181.06" y="185.1372">Process execution now flows through</text><text fill="#000000" font-family="sans-serif" font-size="13" lengthAdjust="spacing" textLength="348.8799" x="3181.06" y="200.4477">ImageMagickCommand -&gt; CliCommand -&gt; RaiSystem.</text></g><!--reverse link CliCommand to CurlCommand--><g class="link" data-entity-1="ent0002" data-entity-2="ent0003" data-link-type="extension" data-source-line="91" id="lnk12"><path codeLine="91" d="M1217.09,214.1483 C952.48,214.1483 645,214.1483 645,214.1483 C645,214.1483 645,324.6483 645,366.9483" fill="none" id="CliCommand-backto-CurlCommand" style="stroke:#9B2C2C;stroke-width:1;"/><polygon fill="none" points="1235.09,214.1483,1217.09,208.1483,1217.09,220.1483,1235.09,214.1483" style="stroke:#9B2C2C;stroke-width:1;stroke-linejoin:miter;stroke-miterlimit:10;"/></g><!--reverse link CliCommand to RCloneCommand--><g class="link" data-entity-1="ent0002" data-entity-2="ent0004" data-link-type="extension" data-source-line="92" id="lnk13"><path codeLine="92" d="M1406.83,300.2783 C1406.83,321.3983 1406.83,324.4883 1406.83,341.8783" fill="none" id="CliCommand-backto-RCloneCommand" style="stroke:#9B2C2C;stroke-width:1;"/><polygon fill="none" points="1406.83,282.2783,1400.83,300.2783,1412.83,300.2783,1406.83,282.2783" style="stroke:#9B2C2C;stroke-width:1;stroke-linejoin:miter;stroke-miterlimit:10;"/></g><!--reverse link CliCommand to ZipCommand--><g class="link" data-entity-1="ent0002" data-entity-2="ent0005" data-link-type="extension" data-source-line="93" id="lnk14"><path codeLine="93" d="M1668,300.2783 C1668,333.0483 1668,347.7383 1668,366.6683" fill="none" id="CliCommand-backto-ZipCommand" style="stroke:#9B2C2C;stroke-width:1;"/><polygon fill="none" points="1668,282.2783,1662,300.2783,1674,300.2783,1668,282.2783" style="stroke:#9B2C2C;stroke-width:1;stroke-linejoin:miter;stroke-miterlimit:10;"/></g><!--reverse link CliCommand to SevenZipCommand--><g class="link" data-entity-1="ent0002" data-entity-2="ent0006" data-link-type="extension" data-source-line="94" id="lnk15"><path codeLine="94" d="M1806.09,300.2783 C1806.09,333.0483 1806.09,347.7383 1806.09,366.6683" fill="none" id="CliCommand-backto-SevenZipCommand" style="stroke:#9B2C2C;stroke-width:1;"/><polygon fill="none" points="1806.09,282.2783,1800.09,300.2783,1812.09,300.2783,1806.09,282.2783" style="stroke:#9B2C2C;stroke-width:1;stroke-linejoin:miter;stroke-miterlimit:10;"/></g><!--reverse link CliCommand to ImageMagickCommand--><g class="link" data-entity-1="ent0002" data-entity-2="ent0010" data-link-type="extension" data-source-line="95" id="lnk16"><path codeLine="95" d="M1853.91,300.3983 C1853.91,338.2583 1853.91,354.1483 1853.91,354.1483 C1853.91,354.1483 1896.53,354.1483 1957.46,354.1483" fill="none" id="CliCommand-backto-ImageMagickCommand" style="stroke:#9B2C2C;stroke-width:1;"/><polygon fill="none" points="1853.91,282.3983,1847.91,300.3983,1859.91,300.3983,1853.91,282.3983" style="stroke:#9B2C2C;stroke-width:1;stroke-linejoin:miter;stroke-miterlimit:10;"/></g><!--link CliCommand to RaiSystem--><g class="link" data-entity-1="ent0002" data-entity-2="ent0007" data-link-type="dependency" data-source-line="97" id="lnk17"><path codeLine="97" d="M1235.29,146.1483 C882.13,146.1483 375.27,146.1483 375.27,146.1483 C375.27,146.1483 375.27,268.6283 375.27,336.5983" fill="none" id="CliCommand-to-RaiSystem" style="stroke:#9B2C2C;stroke-width:1;stroke-dasharray:7,7;"/><polygon fill="#9B2C2C" points="375.27,341.5983,379.27,332.5983,375.27,336.5983,371.27,332.5983,375.27,341.5983" style="stroke:#9B2C2C;stroke-width:1;stroke-linejoin:miter;stroke-miterlimit:10;"/><text fill="#374151" font-family="'Casual'" font-size="13" lengthAdjust="spacing" textLength="45.1318" x="661.56" y="142.7166">creates</text></g><!--link RaiSystem to RaiSystemResult--><g class="link" data-entity-1="ent0007" data-entity-2="ent0008" data-link-type="dependency" data-source-line="98" id="lnk18"><path codeLine="98" d="M287,424.5383 C287,473.1183 287,547.1483 287,547.1483 C287,547.1483 776.89,547.1483 972.13,547.1483" fill="none" id="RaiSystem-to-RaiSystemResult" style="stroke:#9B2C2C;stroke-width:1;"/><polygon fill="#9B2C2C" points="977.13,547.1483,968.13,543.1483,972.13,547.1483,968.13,551.1483,977.13,547.1483" style="stroke:#9B2C2C;stroke-width:1;stroke-linejoin:miter;stroke-miterlimit:10;"/><text fill="#374151" font-family="'Casual'" font-size="13" lengthAdjust="spacing" textLength="45.5063" x="524.76" y="543.7166">returns</text></g><!--link ImageMagick to ImageMagickCommand--><g class="link" data-entity-1="ent0011" data-entity-2="ent0010" data-link-type="dependency" data-source-line="99" id="lnk19"><path codeLine="99" d="M2494,250.0583 C2494,280.5583 2494,310.2883 2494,336.6283" fill="none" id="ImageMagick-to-ImageMagickCommand" style="stroke:#9B2C2C;stroke-width:1;"/><polygon fill="#9B2C2C" points="2494,341.6283,2498,332.6283,2494,336.6283,2490,332.6283,2494,341.6283" style="stroke:#9B2C2C;stroke-width:1;stroke-linejoin:miter;stroke-miterlimit:10;"/><text fill="#374151" font-family="'Casual'" font-size="13" lengthAdjust="spacing" textLength="77.4033" x="2416" y="292.4066">delegates to</text></g><!--link ImageMagickCommand to RaiSystemResult--><g class="link" data-entity-1="ent0010" data-entity-2="ent0008" data-link-type="dependency" data-source-line="100" id="lnk20"><path codeLine="100" d="M2378,424.5383 C2378,473.1183 2378,547.1483 2378,547.1483 C2378,547.1483 1421.41,547.1483 1137.82,547.1483" fill="none" id="ImageMagickCommand-to-RaiSystemResult" style="stroke:#9B2C2C;stroke-width:1;stroke-dasharray:7,7;"/><polygon fill="#9B2C2C" points="1132.82,547.1483,1141.82,551.1483,1137.82,547.1483,1141.82,543.1483,1132.82,547.1483" style="stroke:#9B2C2C;stroke-width:1;stroke-linejoin:miter;stroke-miterlimit:10;"/></g><!--link CliCommand to GMN21--><g class="link" data-entity-1="ent0002" data-entity-2="ent0022" data-link-type="association" data-source-line="103" id="lnk23"><path d="M1902.88,266.1483 C2335.33,266.1483 3034.35,266.1483 3034.35,266.1483 C3034.35,266.1483 3034.35,239.7083 3034.35,216.1683" fill="none" id="CliCommand-GMN21" style="stroke:#9B2C2C;stroke-width:1;stroke-dasharray:7,7;"/></g><!--link RaiSystem to GMN24--><g class="link" data-entity-1="ent0007" data-entity-2="ent0025" data-link-type="association" data-source-line="110" id="lnk26"><path d="M198.73,341.8483 C198.73,326.2283 198.73,312.1483 198.73,312.1483 C198.73,312.1483 2933.65,312.1483 2933.65,312.1483 C2933.65,312.1483 2933.65,335.2383 2933.65,355.0883" fill="none" id="RaiSystem-GMN24" style="stroke:#9B2C2C;stroke-width:1;stroke-dasharray:7,7;"/></g><!--link ImageMagick to GMN27--><g class="link" data-entity-1="ent0011" data-entity-2="ent0028" data-link-type="association" data-source-line="116" id="lnk29"><path d="M2678.19,233.1483 C2932.46,233.1483 3360,233.1483 3360,233.1483 C3360,233.1483 3360,221.1283 3360,208.5483" fill="none" id="ImageMagick-GMN27" style="stroke:#9B2C2C;stroke-width:1;stroke-dasharray:7,7;"/></g><?plantuml-src xLVVR-Cs37wE_meXzx0SrcPDqZQzebSWpVMs3EsrQ3eSi3TPfXqXicH8SdFUrlzzj1qdye-sD-0UzzIO_FYH8YcA_OayW01gu9nCXcV3qTWpQouJgcbCVChMaLQf3EPAA4qsAsx1qPiL3TI6ouY4L1XN8xW4coL0bBOhvIW-SHhXtyzAsYyq1jAVKvDIqU-6BFbVG2QdZd8kg36lMUy0XUtuhAcQMQkvdrfOC2KBpEZeHSpEKUddLLoPedT79vEJiychoA_0evKbKkdu3Suold4JSmkOrE3DBEnXR_9iGpevUZqNIvi9U27mAwK3q5KMmkdfARGWZNvwnrZeXwEkwcq1ez7eR3nr0DSoZMkU_EEJoT679gBfA8HmmfeyZfyf6mUr_7nH5jeiOJWDJfieDvhWs1yTkOYPrcgpLNxmnspCcaedYidqU7GowWBKwxpY0H284vkH668VjF4yoosMPYxuNCKnbG7vZOEccgqopqlm83H2WZjpm_q--TlhKTzOJPabBC-uQuVAti_Ntu2bble22i_d1D5uptFLVKdMad_Y9X4qQyddICe3Qc7FQH2mo2k04UBdHGc-pD4BCtkYNEJYmNk4-Kg9NFweimSmIZmvD0ELMWAxpvrNrwvjzBuMtKCg1rH768gqPgSX7qc_dmCVA5zcnaACFAcmMukPoIHxoUo0C2eP244jL_9HhK4YODwIVIG1X1H9Sp-FrAml6iwAVFmATY6DfK9iwzE87_L_97bskzJFdjVRrZVL5K4bUfWB9Q5MzQkKYs1M7MjWKfzjrHNd0S5JT-Ifbj3bpkw_K7IdUizL9lqx2Nza4PwhZFt9aqOEb_04qX7lSbkHx6zJqQonYMfTogMjzENnVcJhB2tLTh23t6l5m9WIO2xTxcXObq7F6sdEPRDMopl86tppQ_Axr2PuQ5Tq_OtZi0jWV_QlIgz1Fwuqq60HLF9dxzaPMnZV8iPVnUGgGow-Rsd4sVh_5lwE5kx8MrLc-GJO9zkGX5j4fqKhc4fopyQ9FDGgTZwjwZA_LP7cOVQsbpXH1fVCju2B0CkR4xRZuVa9dMzTzdG7oHtQtijemEFeCs-yT0xizmIYHqtbwxYYOvrdzEAVmyFQs6tgQlEtfNM6IbFL73fDVVjgr08R3Y-T-NHE6Duy2yRRomuFBriZuHppQ5CjZUTsK8xik8dds982efmM-y7hGDI2sDuMJ-8sHNInYAhGMKcytXN-VqAgbGNhJK9SbuHYL93vpG9zA666Nc__okTLLoBDiNYtoes22uuB4ri1Mvi3hyVBP_MNj7W-INKbLrXDWpRuirmja0BN9Oq8R3bD1QxIY08DGmyGb0VT37rtiZAaujgJ0FSZQj6zGM8BMcBmIJcJoGQ7eDV3Sz7Y9sXYYu58ZC8f80HkU2HGkI-YKubAy7ftovrvm3KmApAY2brXae-HakJbE9t2UBqRB1ZBo4RJ9C404imWw2SyApK5QNclPlSBJFJsBTbd2Eat91HgasDnPOvMNg-ZxDWkJYUwRUO4-Iy0?></g></svg>